<svg xmlns="http://www.w3.org/2000/svg" xmlns:xlink="http://www.w3.org/1999/xlink" width="247" height="101.939" viewBox="0 0 247 101.939">
  <defs>
    <clipPath id="clip-path">
      <rect width="247" height="101.939" fill="none"/>
    </clipPath>
    <clipPath id="clip-path-2">
      <rect id="Retângulo_51" data-name="Retângulo 51" width="101.331" height="95.939" fill="none"/>
    </clipPath>
  </defs>
  <g id="Repetição_de_grade_1" data-name="Repetição de grade 1" clip-path="url(#clip-path)">
    <g transform="translate(-660 192)">
      <g id="Repetição_de_grade_3" data-name="Repetição de grade 3" transform="translate(660 -192)" clip-path="url(#clip-path-2)">
        <g id="Grupo_9" data-name="Grupo 9" transform="translate(-57 72.039)">
          <path id="Caminho_23" data-name="Caminho 23" d="M57,15.744l.668-70.294s-.381-5.1,2.539-8.56,9.14-5.3,9.14-5.3l29.016-6.311a11.632,11.632,0,0,1,4.715,0c2.9.508,3.482,1.6,4.715,3.264A19.8,19.8,0,0,1,110.4-65.14c.29,1.451.722,18.586,0,19.658s-7.54,3.555-11.6,7.907-4.712,7.761-4.86,9.067.646,40.883,0,41.855-3.119,2.9-7.762,4.062A51.024,51.024,0,0,1,75.731,18.57H62.964a13.918,13.918,0,0,1-4.28-.508A3.588,3.588,0,0,1,57,15.744Z" transform="translate(0 2.902)" fill="#2d2d2d"/>
          <path id="Caminho_24" data-name="Caminho 24" d="M104.956-24V16.691s.573,3.915,3.112,5.752,7.073,1.415,7.073,1.415l39.7-10.467a15.336,15.336,0,0,0,2.358-3.018,22.271,22.271,0,0,0,1.132-4.526V-31.308a9.507,9.507,0,0,0-4.381-6.357c-3.962-2.567-6.026-2.4-7.923-2.065s-37.392,10.967-37.392,10.967a4.627,4.627,0,0,0-2.923,2.075A4.152,4.152,0,0,0,104.956-24Z" fill="#2d2d2d"/>
        </g>
        <rect id="Retângulo_50" data-name="Retângulo 50" width="101.331" height="95.939" fill="none"/>
      </g>
      <g id="Repetição_de_grade_3-2" data-name="Repetição de grade 3" transform="translate(662 -190)" clip-path="url(#clip-path-2)">
        <g id="Grupo_2" data-name="Grupo 2" transform="translate(-57 72.039)">
          <path id="Caminho_23-2" data-name="Caminho 23" d="M57,15.744l.668-70.294s-.381-5.1,2.539-8.56,9.14-5.3,9.14-5.3l29.016-6.311a11.632,11.632,0,0,1,4.715,0c2.9.508,3.482,1.6,4.715,3.264A19.8,19.8,0,0,1,110.4-65.14c.29,1.451.722,18.586,0,19.658s-7.54,3.555-11.6,7.907-4.712,7.761-4.86,9.067.646,40.883,0,41.855-3.119,2.9-7.762,4.062A51.024,51.024,0,0,1,75.731,18.57H62.964a13.918,13.918,0,0,1-4.28-.508A3.588,3.588,0,0,1,57,15.744Z" transform="translate(0 2.902)" fill="#ffe601"/>
          <path id="Caminho_24-2" data-name="Caminho 24" d="M104.956-24V16.691s.573,3.915,3.112,5.752,7.073,1.415,7.073,1.415l39.7-10.467a15.336,15.336,0,0,0,2.358-3.018,22.271,22.271,0,0,0,1.132-4.526V-31.308a9.507,9.507,0,0,0-4.381-6.357c-3.962-2.567-6.026-2.4-7.923-2.065s-37.392,10.967-37.392,10.967a4.627,4.627,0,0,0-2.923,2.075A4.152,4.152,0,0,0,104.956-24Z" fill="#ffe601"/>
        </g>
        <rect id="Retângulo_36" data-name="Retângulo 36" width="101.331" height="95.939" fill="none"/>
      </g>
      <g id="Repetição_de_grade_3-3" data-name="Repetição de grade 3" transform="translate(664 -188)" clip-path="url(#clip-path-2)">
        <g id="Grupo_1" data-name="Grupo 1" transform="translate(-57 72.039)">
          <path id="Caminho_23-3" data-name="Caminho 23" d="M57,15.744l.668-70.294s-.381-5.1,2.539-8.56,9.14-5.3,9.14-5.3l29.016-6.311a11.632,11.632,0,0,1,4.715,0c2.9.508,3.482,1.6,4.715,3.264A19.8,19.8,0,0,1,110.4-65.14c.29,1.451.722,18.586,0,19.658s-7.54,3.555-11.6,7.907-4.712,7.761-4.86,9.067.646,40.883,0,41.855-3.119,2.9-7.762,4.062A51.024,51.024,0,0,1,75.731,18.57H62.964a13.918,13.918,0,0,1-4.28-.508A3.588,3.588,0,0,1,57,15.744Z" transform="translate(0 2.902)" fill="#a0f600"/>
          <path id="Caminho_24-3" data-name="Caminho 24" d="M104.956-24V16.691s.573,3.915,3.112,5.752,7.073,1.415,7.073,1.415l39.7-10.467a15.336,15.336,0,0,0,2.358-3.018,22.271,22.271,0,0,0,1.132-4.526V-31.308a9.507,9.507,0,0,0-4.381-6.357c-3.962-2.567-6.026-2.4-7.923-2.065s-37.392,10.967-37.392,10.967a4.627,4.627,0,0,0-2.923,2.075A4.152,4.152,0,0,0,104.956-24Z" fill="#a0f600"/>
        </g>
        <rect id="Retângulo_35" data-name="Retângulo 35" width="101.331" height="95.939" fill="none"/>
      </g>
      <g id="Repetição_de_grade_3-4" data-name="Repetição de grade 3" transform="translate(663 -189)" clip-path="url(#clip-path-2)">
        <g id="Grupo_6" data-name="Grupo 6" transform="translate(-57 72.039)">
          <path id="Caminho_23-4" data-name="Caminho 23" d="M57,15.744l.668-70.294s-.381-5.1,2.539-8.56,9.14-5.3,9.14-5.3l29.016-6.311a11.632,11.632,0,0,1,4.715,0c2.9.508,3.482,1.6,4.715,3.264A19.8,19.8,0,0,1,110.4-65.14c.29,1.451.722,18.586,0,19.658s-7.54,3.555-11.6,7.907-4.712,7.761-4.86,9.067.646,40.883,0,41.855-3.119,2.9-7.762,4.062A51.024,51.024,0,0,1,75.731,18.57H62.964a13.918,13.918,0,0,1-4.28-.508A3.588,3.588,0,0,1,57,15.744Z" transform="translate(0 2.902)" fill="#a0f600"/>
          <path id="Caminho_24-4" data-name="Caminho 24" d="M104.956-24V16.691s.573,3.915,3.112,5.752,7.073,1.415,7.073,1.415l39.7-10.467a15.336,15.336,0,0,0,2.358-3.018,22.271,22.271,0,0,0,1.132-4.526V-31.308a9.507,9.507,0,0,0-4.381-6.357c-3.962-2.567-6.026-2.4-7.923-2.065s-37.392,10.967-37.392,10.967a4.627,4.627,0,0,0-2.923,2.075A4.152,4.152,0,0,0,104.956-24Z" fill="#a0f600"/>
        </g>
        <rect id="Retângulo_44" data-name="Retângulo 44" width="101.331" height="95.939" fill="none"/>
      </g>
      <g id="Repetição_de_grade_3-5" data-name="Repetição de grade 3" transform="translate(665 -188)" clip-path="url(#clip-path-2)">
        <g id="Grupo_5" data-name="Grupo 5" transform="translate(-57 72.039)">
          <path id="Caminho_23-5" data-name="Caminho 23" d="M57,15.744l.668-70.294s-.381-5.1,2.539-8.56,9.14-5.3,9.14-5.3l29.016-6.311a11.632,11.632,0,0,1,4.715,0c2.9.508,3.482,1.6,4.715,3.264A19.8,19.8,0,0,1,110.4-65.14c.29,1.451.722,18.586,0,19.658s-7.54,3.555-11.6,7.907-4.712,7.761-4.86,9.067.646,40.883,0,41.855-3.119,2.9-7.762,4.062A51.024,51.024,0,0,1,75.731,18.57H62.964a13.918,13.918,0,0,1-4.28-.508A3.588,3.588,0,0,1,57,15.744Z" transform="translate(0 2.902)" fill="#00e6f6"/>
          <path id="Caminho_24-5" data-name="Caminho 24" d="M104.956-24V16.691s.573,3.915,3.112,5.752,7.073,1.415,7.073,1.415l39.7-10.467a15.336,15.336,0,0,0,2.358-3.018,22.271,22.271,0,0,0,1.132-4.526V-31.308a9.507,9.507,0,0,0-4.381-6.357c-3.962-2.567-6.026-2.4-7.923-2.065s-37.392,10.967-37.392,10.967a4.627,4.627,0,0,0-2.923,2.075A4.152,4.152,0,0,0,104.956-24Z" fill="#00e6f6"/>
        </g>
        <rect id="Retângulo_42" data-name="Retângulo 42" width="101.331" height="95.939" fill="none"/>
      </g>
      <g id="Repetição_de_grade_3-6" data-name="Repetição de grade 3" transform="translate(668 -186)" clip-path="url(#clip-path-2)">
        <g id="Grupo_4" data-name="Grupo 4" transform="translate(-57 72.039)">
          <path id="Caminho_23-6" data-name="Caminho 23" d="M57,15.744l.668-70.294s-.381-5.1,2.539-8.56,9.14-5.3,9.14-5.3l29.016-6.311a11.632,11.632,0,0,1,4.715,0c2.9.508,3.482,1.6,4.715,3.264A19.8,19.8,0,0,1,110.4-65.14c.29,1.451.722,18.586,0,19.658s-7.54,3.555-11.6,7.907-4.712,7.761-4.86,9.067.646,40.883,0,41.855-3.119,2.9-7.762,4.062A51.024,51.024,0,0,1,75.731,18.57H62.964a13.918,13.918,0,0,1-4.28-.508A3.588,3.588,0,0,1,57,15.744Z" transform="translate(0 2.902)" fill="#2d2d2d"/>
          <path id="Caminho_24-6" data-name="Caminho 24" d="M104.956-24V16.691s.573,3.915,3.112,5.752,7.073,1.415,7.073,1.415l39.7-10.467a15.336,15.336,0,0,0,2.358-3.018,22.271,22.271,0,0,0,1.132-4.526V-31.308a9.507,9.507,0,0,0-4.381-6.357c-3.962-2.567-6.026-2.4-7.923-2.065s-37.392,10.967-37.392,10.967a4.627,4.627,0,0,0-2.923,2.075A4.152,4.152,0,0,0,104.956-24Z" fill="#2d2d2d"/>
        </g>
        <rect id="Retângulo_40" data-name="Retângulo 40" width="101.331" height="95.939" fill="none"/>
      </g>
      <text id="Mrplato" transform="translate(775 -110)" fill="#2d2d2d" font-size="39" font-family="Calibri-Bold, Calibri" font-weight="700"><tspan x="0" y="0">Mrplato</tspan></text>
    </g>
  </g>
</svg>
