<svg xmlns="http://www.w3.org/2000/svg" xmlns:xlink="http://www.w3.org/1999/xlink" width="271" height="93" viewBox="0 0 271 93">
  <defs>
    <clipPath id="clip-path">
      <rect width="271" height="93" fill="none"/>
    </clipPath>
    <clipPath id="clip-path-2">
      <rect id="Retângulo_57" data-name="Retângulo 57" width="91.548" height="86.676" fill="none"/>
    </clipPath>
  </defs>
  <g id="Repetição_de_grade_1" data-name="Repetição de grade 1" clip-path="url(#clip-path)">
    <g transform="translate(-610 -132)">
      <g id="Repetição_de_grade_3" data-name="Repetição de grade 3" transform="translate(610 132)" clip-path="url(#clip-path-2)">
        <g id="Grupo_11" data-name="Grupo 11" transform="translate(0 -0.019)">
          <path id="Caminho_23" data-name="Caminho 23" d="M57,6.987l.6-63.507s-.344-4.608,2.294-7.734,8.258-4.788,8.258-4.788l26.215-5.7a10.509,10.509,0,0,1,4.26,0c2.62.459,3.146,1.446,4.26,2.949a17.887,17.887,0,0,1,2.355,5.707c.262,1.311.652,16.792,0,17.76s-6.812,3.212-10.48,7.144-4.257,7.012-4.391,8.192.584,36.936,0,37.814-2.818,2.62-7.013,3.67A46.1,46.1,0,0,1,73.923,9.54H62.388a12.574,12.574,0,0,1-3.867-.459A3.242,3.242,0,0,1,57,6.987Z" transform="translate(-57 74.962)" fill="#2d2d2d"/>
          <path id="Caminho_24" data-name="Caminho 24" d="M104.955-25.537V11.226s.518,3.537,2.812,5.2,6.39,1.278,6.39,1.278l35.867-9.456a13.856,13.856,0,0,0,2.13-2.727,20.122,20.122,0,0,0,1.023-4.089V-32.139a8.589,8.589,0,0,0-3.958-5.743c-3.579-2.319-5.444-2.168-7.158-1.866s-33.782,9.908-33.782,9.908a4.18,4.18,0,0,0-2.641,1.875,3.751,3.751,0,0,0-.683,2.428Z" transform="translate(-61.629 68.957)" fill="#2d2d2d"/>
        </g>
        <rect id="Retângulo_56" data-name="Retângulo 56" width="91.548" height="86.676" fill="none"/>
      </g>
      <g id="Repetição_de_grade_3-2" data-name="Repetição de grade 3" transform="translate(612 134)" clip-path="url(#clip-path-2)">
        <g id="Grupo_12" data-name="Grupo 12" transform="translate(0 -0.019)">
          <path id="Caminho_23-2" data-name="Caminho 23" d="M57,6.987l.6-63.507s-.344-4.608,2.294-7.734,8.258-4.788,8.258-4.788l26.215-5.7a10.509,10.509,0,0,1,4.26,0c2.62.459,3.146,1.446,4.26,2.949a17.887,17.887,0,0,1,2.355,5.707c.262,1.311.652,16.792,0,17.76s-6.812,3.212-10.48,7.144-4.257,7.012-4.391,8.192.584,36.936,0,37.814-2.818,2.62-7.013,3.67A46.1,46.1,0,0,1,73.923,9.54H62.388a12.574,12.574,0,0,1-3.867-.459A3.242,3.242,0,0,1,57,6.987Z" transform="translate(-57 74.962)" fill="#ffe601"/>
          <path id="Caminho_24-2" data-name="Caminho 24" d="M104.955-25.537V11.226s.518,3.537,2.812,5.2,6.39,1.278,6.39,1.278l35.867-9.456a13.856,13.856,0,0,0,2.13-2.727,20.122,20.122,0,0,0,1.023-4.089V-32.139a8.589,8.589,0,0,0-3.958-5.743c-3.579-2.319-5.444-2.168-7.158-1.866s-33.782,9.908-33.782,9.908a4.18,4.18,0,0,0-2.641,1.875,3.751,3.751,0,0,0-.683,2.428Z" transform="translate(-61.629 68.957)" fill="#ffe601"/>
        </g>
        <rect id="Retângulo_58" data-name="Retângulo 58" width="91.548" height="86.676" fill="none"/>
      </g>
      <g id="Repetição_de_grade_3-3" data-name="Repetição de grade 3" transform="translate(614 136)" clip-path="url(#clip-path-2)">
        <g id="Grupo_13" data-name="Grupo 13" transform="translate(0 -0.019)">
          <path id="Caminho_23-3" data-name="Caminho 23" d="M57,6.987l.6-63.507s-.344-4.608,2.294-7.734,8.258-4.788,8.258-4.788l26.215-5.7a10.509,10.509,0,0,1,4.26,0c2.62.459,3.146,1.446,4.26,2.949a17.887,17.887,0,0,1,2.355,5.707c.262,1.311.652,16.792,0,17.76s-6.812,3.212-10.48,7.144-4.257,7.012-4.391,8.192.584,36.936,0,37.814-2.818,2.62-7.013,3.67A46.1,46.1,0,0,1,73.923,9.54H62.388a12.574,12.574,0,0,1-3.867-.459A3.242,3.242,0,0,1,57,6.987Z" transform="translate(-57 74.962)" fill="#a0f600"/>
          <path id="Caminho_24-3" data-name="Caminho 24" d="M104.955-25.537V11.226s.518,3.537,2.812,5.2,6.39,1.278,6.39,1.278l35.867-9.456a13.856,13.856,0,0,0,2.13-2.727,20.122,20.122,0,0,0,1.023-4.089V-32.139a8.589,8.589,0,0,0-3.958-5.743c-3.579-2.319-5.444-2.168-7.158-1.866s-33.782,9.908-33.782,9.908a4.18,4.18,0,0,0-2.641,1.875,3.751,3.751,0,0,0-.683,2.428Z" transform="translate(-61.629 68.957)" fill="#a0f600"/>
        </g>
        <rect id="Retângulo_60" data-name="Retângulo 60" width="91.548" height="86.676" fill="none"/>
      </g>
      <g id="Repetição_de_grade_3-4" data-name="Repetição de grade 3" transform="translate(613 135)" clip-path="url(#clip-path-2)">
        <g id="Grupo_14" data-name="Grupo 14" transform="translate(0 -0.019)">
          <path id="Caminho_23-4" data-name="Caminho 23" d="M57,6.987l.6-63.507s-.344-4.608,2.294-7.734,8.258-4.788,8.258-4.788l26.215-5.7a10.509,10.509,0,0,1,4.26,0c2.62.459,3.146,1.446,4.26,2.949a17.887,17.887,0,0,1,2.355,5.707c.262,1.311.652,16.792,0,17.76s-6.812,3.212-10.48,7.144-4.257,7.012-4.391,8.192.584,36.936,0,37.814-2.818,2.62-7.013,3.67A46.1,46.1,0,0,1,73.923,9.54H62.388a12.574,12.574,0,0,1-3.867-.459A3.242,3.242,0,0,1,57,6.987Z" transform="translate(-57 74.962)" fill="#a0f600"/>
          <path id="Caminho_24-4" data-name="Caminho 24" d="M104.955-25.537V11.226s.518,3.537,2.812,5.2,6.39,1.278,6.39,1.278l35.867-9.456a13.856,13.856,0,0,0,2.13-2.727,20.122,20.122,0,0,0,1.023-4.089V-32.139a8.589,8.589,0,0,0-3.958-5.743c-3.579-2.319-5.444-2.168-7.158-1.866s-33.782,9.908-33.782,9.908a4.18,4.18,0,0,0-2.641,1.875,3.751,3.751,0,0,0-.683,2.428Z" transform="translate(-61.629 68.957)" fill="#a0f600"/>
        </g>
        <rect id="Retângulo_62" data-name="Retângulo 62" width="91.548" height="86.676" fill="none"/>
      </g>
      <g id="Repetição_de_grade_3-5" data-name="Repetição de grade 3" transform="translate(615 136)" clip-path="url(#clip-path-2)">
        <g id="Grupo_15" data-name="Grupo 15" transform="translate(0 -0.019)">
          <path id="Caminho_23-5" data-name="Caminho 23" d="M57,6.987l.6-63.507s-.344-4.608,2.294-7.734,8.258-4.788,8.258-4.788l26.215-5.7a10.509,10.509,0,0,1,4.26,0c2.62.459,3.146,1.446,4.26,2.949a17.887,17.887,0,0,1,2.355,5.707c.262,1.311.652,16.792,0,17.76s-6.812,3.212-10.48,7.144-4.257,7.012-4.391,8.192.584,36.936,0,37.814-2.818,2.62-7.013,3.67A46.1,46.1,0,0,1,73.923,9.54H62.388a12.574,12.574,0,0,1-3.867-.459A3.242,3.242,0,0,1,57,6.987Z" transform="translate(-57 74.962)" fill="#00e6f6"/>
          <path id="Caminho_24-5" data-name="Caminho 24" d="M104.955-25.537V11.226s.518,3.537,2.812,5.2,6.39,1.278,6.39,1.278l35.867-9.456a13.856,13.856,0,0,0,2.13-2.727,20.122,20.122,0,0,0,1.023-4.089V-32.139a8.589,8.589,0,0,0-3.958-5.743c-3.579-2.319-5.444-2.168-7.158-1.866s-33.782,9.908-33.782,9.908a4.18,4.18,0,0,0-2.641,1.875,3.751,3.751,0,0,0-.683,2.428Z" transform="translate(-61.629 68.957)" fill="#00e6f6"/>
        </g>
        <rect id="Retângulo_64" data-name="Retângulo 64" width="91.548" height="86.676" fill="none"/>
      </g>
      <g id="Repetição_de_grade_3-6" data-name="Repetição de grade 3" transform="translate(618 138)" clip-path="url(#clip-path-2)">
        <g id="Grupo_16" data-name="Grupo 16" transform="translate(0 -0.019)">
          <path id="Caminho_23-6" data-name="Caminho 23" d="M57,6.987l.6-63.507s-.344-4.608,2.294-7.734,8.258-4.788,8.258-4.788l26.215-5.7a10.509,10.509,0,0,1,4.26,0c2.62.459,3.146,1.446,4.26,2.949a17.887,17.887,0,0,1,2.355,5.707c.262,1.311.652,16.792,0,17.76s-6.812,3.212-10.48,7.144-4.257,7.012-4.391,8.192.584,36.936,0,37.814-2.818,2.62-7.013,3.67A46.1,46.1,0,0,1,73.923,9.54H62.388a12.574,12.574,0,0,1-3.867-.459A3.242,3.242,0,0,1,57,6.987Z" transform="translate(-57 74.962)" fill="#2d2d2d"/>
          <path id="Caminho_24-6" data-name="Caminho 24" d="M104.955-25.537V11.226s.518,3.537,2.812,5.2,6.39,1.278,6.39,1.278l35.867-9.456a13.856,13.856,0,0,0,2.13-2.727,20.122,20.122,0,0,0,1.023-4.089V-32.139a8.589,8.589,0,0,0-3.958-5.743c-3.579-2.319-5.444-2.168-7.158-1.866s-33.782,9.908-33.782,9.908a4.18,4.18,0,0,0-2.641,1.875,3.751,3.751,0,0,0-.683,2.428Z" transform="translate(-61.629 68.957)" fill="#2d2d2d"/>
        </g>
        <rect id="Retângulo_66" data-name="Retângulo 66" width="91.548" height="86.676" fill="none"/>
      </g>
      <text id="Mrplato" transform="translate(729 213)" fill="#2d2d2d" font-size="45" font-family="Calibri-Bold, Calibri" font-weight="700"><tspan x="0" y="0">Mrplato</tspan></text>
    </g>
  </g>
</svg>
